<?xml version="1.0" encoding="UTF-8"?>
<svg id="Layer_1" data-name="Layer 1" xmlns="http://www.w3.org/2000/svg" xmlns:xlink="http://www.w3.org/1999/xlink" viewBox="0 0 850 35">
  <defs>
    <style>
      .cls-1 {
        fill: url(#linear-gradient);
      }

      .cls-2 {
        fill: #fff;
      }
    </style>
    <linearGradient id="linear-gradient" x1="0" y1="17.5" x2="850" y2="17.5" gradientUnits="userSpaceOnUse">
      <stop offset="0" stop-color="#d300ff"/>
      <stop offset=".22" stop-color="#ce04f8"/>
      <stop offset=".51" stop-color="#c20fe7"/>
      <stop offset=".85" stop-color="#ae23ca"/>
      <stop offset="1" stop-color="#a42dbc"/>
    </linearGradient>
  </defs>
  <rect class="cls-1" width="850" height="35" rx="5.47" ry="5.47"/>
  <g>
    <path class="cls-2" d="M20.49,14.41h-3.09v-1.47h7.92v1.47h-3.09v8.34h-1.74V14.41Z"/>
    <path class="cls-2" d="M27.1,12.16h1.73v2.73l-.1,1.58h.05c.64-.69,1.47-1.27,2.59-1.27,1.7,0,2.46,1.09,2.46,2.98v4.56h-1.73v-4.34c0-1.18-.38-1.72-1.37-1.72-.73,0-1.22,.35-1.89,1.04v5.02h-1.73V12.16Z"/>
    <path class="cls-2" d="M39.31,16.76h-3.18v-1.37h4.92v7.37h-1.74v-5.99Zm-.48-3.87c0-.69,.52-1.17,1.23-1.17s1.23,.48,1.23,1.17-.52,1.16-1.23,1.16-1.23-.46-1.23-1.16Z"/>
    <path class="cls-2" d="M44.79,21.79l.76-1.11c.88,.58,1.88,.93,3.08,.93,1.02,0,1.5-.39,1.5-.88s-.32-.75-2.04-1.11c-1.97-.41-2.84-1.11-2.84-2.23,0-1.28,1.17-2.2,3.23-2.2,1.22,0,2.34,.48,3.08,.97l-.8,1.06c-.71-.46-1.56-.74-2.44-.74-.95,0-1.35,.37-1.35,.82,0,.52,.54,.7,1.92,1,2.35,.52,2.97,1.15,2.97,2.32,0,1.27-1.22,2.29-3.46,2.29-1.38,0-2.7-.52-3.61-1.14Z"/>
    <path class="cls-2" d="M66.31,16.76h-3.18v-1.37h4.92v7.37h-1.74v-5.99Zm-.48-3.87c0-.69,.52-1.17,1.23-1.17s1.23,.48,1.23,1.17-.52,1.16-1.23,1.16-1.23-.46-1.23-1.16Z"/>
    <path class="cls-2" d="M71.79,21.79l.76-1.11c.88,.58,1.88,.93,3.08,.93,1.02,0,1.5-.39,1.5-.88s-.32-.75-2.04-1.11c-1.97-.41-2.84-1.11-2.84-2.23,0-1.28,1.17-2.2,3.23-2.2,1.22,0,2.34,.48,3.08,.97l-.8,1.06c-.71-.46-1.56-.74-2.44-.74-.95,0-1.35,.37-1.35,.82,0,.52,.54,.7,1.92,1,2.35,.52,2.97,1.15,2.97,2.32,0,1.27-1.22,2.29-3.46,2.29-1.38,0-2.7-.52-3.61-1.14Z"/>
    <path class="cls-2" d="M89.56,15.39h1.33l.13,.94h.04c.33-.64,.79-1.12,1.64-1.12,.68,0,1.14,.42,1.34,1.24,.34-.73,.83-1.24,1.68-1.24,1.04,0,1.64,.86,1.64,2.33v5.22h-1.67v-5.1c0-.65-.17-.97-.59-.97s-.63,.3-.92,.92v5.15h-1.44v-5.1c0-.65-.17-.97-.58-.97-.39,0-.65,.3-.92,.92v5.15h-1.67v-7.37Z"/>
    <path class="cls-2" d="M98.92,20.78c0-1.65,1.45-2.47,5.09-2.73-.06-.82-.55-1.44-1.75-1.44-.83,0-1.65,.36-2.41,.78l-.64-1.15c.89-.53,2.1-1.03,3.37-1.03,2.04,0,3.17,1.14,3.17,3.19v4.36h-1.43l-.13-.91h-.05c-.77,.6-1.76,1.09-2.75,1.09-1.44,0-2.47-.88-2.47-2.16Zm5.09-.1v-1.55c-2.65,.17-3.41,.72-3.41,1.51,0,.65,.57,.93,1.3,.93s1.43-.35,2.11-.89Z"/>
    <path class="cls-2" d="M107.67,19.08c0-2.4,1.57-3.87,3.24-3.87,.84,0,1.46,.32,2.03,.86h.04l-.08-1.24v-2.67h1.73v10.59h-1.42l-.13-.86h-.05c-.57,.58-1.39,1.04-2.22,1.04-1.9,0-3.14-1.42-3.14-3.85Zm5.23,1.54v-3.31c-.53-.49-1.04-.66-1.57-.66-1.03,0-1.88,.88-1.88,2.42s.67,2.44,1.79,2.44c.61,0,1.15-.27,1.67-.88Z"/>
    <path class="cls-2" d="M116.79,19.06c0-2.4,1.83-3.85,3.8-3.85,2.2,0,3.42,1.46,3.42,3.5,0,.35-.05,.68-.08,.87h-5.9v-1.22h4.78l-.33,.38c0-1.45-.68-2.19-1.84-2.19-1.22,0-2.16,.88-2.16,2.52s1.03,2.53,2.56,2.53c.77,0,1.41-.23,2.07-.6l.59,1.07c-.79,.51-1.8,.87-2.89,.87-2.26,0-4.03-1.42-4.03-3.87Z"/>
    <path class="cls-2" d="M133.95,15.39h1.69l.66,3.83c.11,.71,.2,1.39,.29,2.11h.05c.08-.72,.22-1.42,.38-2.11l.68-3.11h1.42l.67,3.11c.15,.71,.32,1.39,.41,2.11h.06c.11-.72,.16-1.4,.27-2.11l.64-3.83h1.6l-1.35,7.37h-2.1l-.62-2.94c-.11-.58-.21-1.29-.32-2.18h-.06c-.09,.77-.19,1.46-.3,2.18l-.6,2.94h-2.07l-1.4-7.37Z"/>
    <path class="cls-2" d="M147.31,16.76h-3.18v-1.37h4.92v7.37h-1.73v-5.99Zm-.48-3.87c0-.69,.52-1.17,1.23-1.17s1.23,.48,1.23,1.17-.52,1.16-1.23,1.16-1.23-.46-1.23-1.16Z"/>
    <path class="cls-2" d="M154.71,19.79v-3.03h-1.97v-1.29l2.04-.08,.23-2.31h1.44v2.31h3.35v1.37h-3.35v3.02c0,1.22,.46,1.77,1.7,1.77,.61,0,1.12-.12,1.6-.3l.34,1.26c-.66,.22-1.4,.42-2.36,.42-2.25,0-3.02-1.26-3.02-3.14Z"/>
    <path class="cls-2" d="M162.1,12.16h1.73v2.73l-.1,1.58h.05c.64-.69,1.47-1.27,2.59-1.27,1.7,0,2.46,1.09,2.46,2.98v4.56h-1.73v-4.34c0-1.18-.38-1.72-1.37-1.72-.73,0-1.22,.35-1.89,1.04v5.02h-1.73V12.16Z"/>
    <path class="cls-2" d="M180.13,12.95h3.28c2.03,0,3.62,.72,3.62,2.91s-1.58,3.06-3.62,3.06h-1.52v3.83h-1.75V12.95Zm3.1,4.58c1.34,0,2.07-.56,2.07-1.67s-.73-1.52-2.07-1.52h-1.34v3.19h1.34Zm1.11-.12l3.06,5.34h-1.96l-2.37-4.3,1.27-1.04Z"/>
    <path class="cls-2" d="M188.79,19.06c0-2.4,1.83-3.85,3.8-3.85,2.2,0,3.42,1.46,3.42,3.5,0,.35-.05,.68-.08,.87h-5.9v-1.22h4.78l-.33,.38c0-1.45-.68-2.19-1.84-2.19-1.22,0-2.16,.88-2.16,2.52s1.03,2.53,2.56,2.53c.77,0,1.41-.23,2.07-.6l.59,1.07c-.79,.51-1.8,.87-2.89,.87-2.26,0-4.03-1.42-4.03-3.87Z"/>
    <path class="cls-2" d="M197.47,15.39h1.75l1.42,3.81c.26,.74,.5,1.48,.74,2.23h.06c.24-.74,.46-1.49,.73-2.23l1.42-3.81h1.66l-2.88,7.37h-1.97l-2.94-7.37Z"/>
    <path class="cls-2" d="M209.34,12.95h2.06l3.18,9.81h-1.86l-1.47-5.21c-.3-1.03-.61-2.15-.88-3.23h-.06c-.28,1.08-.57,2.2-.87,3.23l-1.49,5.21h-1.79l3.18-9.81Zm-1.29,5.78h4.6v1.38h-4.6v-1.38Z"/>
    <path class="cls-2" d="M216.13,21.29h2.36v-6.87h-2.36v-1.47h6.47v1.47h-2.36v6.87h2.36v1.47h-6.47v-1.47Z"/>
    <path class="cls-2" d="M226.7,24.94c1.3-.52,1.94-1.3,1.92-2.4l-.17-1.59,.87,1.35c-.26,.25-.58,.35-.92,.35-.75,0-1.4-.46-1.4-1.33s.65-1.34,1.45-1.34c1.06,0,1.61,.85,1.61,2.25,0,1.83-1.04,3.13-2.9,3.75l-.45-1.03Zm.18-8.64c0-.87,.63-1.52,1.48-1.52s1.48,.66,1.48,1.52-.63,1.52-1.48,1.52-1.48-.64-1.48-1.52Z"/>
    <path class="cls-2" d="M245.34,12.95h2.06l3.18,9.81h-1.86l-1.47-5.21c-.3-1.03-.61-2.15-.88-3.23h-.06c-.28,1.08-.57,2.2-.87,3.23l-1.49,5.21h-1.79l3.18-9.81Zm-1.29,5.78h4.6v1.38h-4.6v-1.38Z"/>
    <path class="cls-2" d="M252.1,15.39h1.42l.13,1.11h.06c.7-.71,1.53-1.29,2.66-1.29,1.7,0,2.47,1.09,2.47,2.98v4.56h-1.73v-4.34c0-1.18-.38-1.72-1.37-1.72-.73,0-1.22,.35-1.89,1.04v5.02h-1.73v-7.37Z"/>
    <path class="cls-2" d="M272.34,12.95h2.06l3.18,9.81h-1.86l-1.48-5.21c-.3-1.03-.61-2.15-.88-3.23h-.06c-.28,1.08-.57,2.2-.87,3.23l-1.49,5.21h-1.79l3.18-9.81Zm-1.29,5.78h4.6v1.38h-4.6v-1.38Z"/>
    <path class="cls-2" d="M279.13,21.29h2.36v-6.87h-2.36v-1.47h6.47v1.47h-2.36v6.87h2.36v1.47h-6.47v-1.47Z"/>
    <path class="cls-2" d="M296.76,17.88c0-3.2,1.95-5.11,4.54-5.11,1.21,0,2.19,.58,2.81,1.22l-.97,1.09c-.49-.48-1.07-.79-1.84-.79-1.63,0-2.75,1.34-2.75,3.54s1.12,3.59,2.79,3.59c.8,0,1.44-.37,1.98-.97l.97,1.06c-.78,.92-1.82,1.43-3.13,1.43-2.43,0-4.41-1.8-4.41-5.06Z"/>
    <path class="cls-2" d="M305.67,19.08c0-2.46,1.76-3.87,3.7-3.87s3.7,1.41,3.7,3.87-1.76,3.85-3.7,3.85-3.7-1.41-3.7-3.85Zm5.62,0c0-1.48-.72-2.46-1.92-2.46s-1.92,.98-1.92,2.46,.72,2.44,1.92,2.44,1.92-.97,1.92-2.44Z"/>
    <path class="cls-2" d="M314.67,19.08c0-2.4,1.57-3.87,3.24-3.87,.84,0,1.46,.32,2.03,.86h.04l-.08-1.24v-2.67h1.73v10.59h-1.42l-.13-.86h-.05c-.57,.58-1.39,1.04-2.22,1.04-1.9,0-3.14-1.42-3.14-3.85Zm5.23,1.54v-3.31c-.53-.49-1.04-.66-1.57-.66-1.03,0-1.88,.88-1.88,2.42s.67,2.44,1.79,2.44c.61,0,1.15-.27,1.67-.88Z"/>
    <path class="cls-2" d="M323.79,19.06c0-2.4,1.82-3.85,3.8-3.85,2.2,0,3.42,1.46,3.42,3.5,0,.35-.05,.68-.08,.87h-5.9v-1.22h4.78l-.33,.38c0-1.45-.68-2.19-1.84-2.19-1.22,0-2.16,.88-2.16,2.52s1.03,2.53,2.56,2.53c.77,0,1.41-.23,2.07-.6l.59,1.07c-.79,.51-1.8,.87-2.89,.87-2.26,0-4.03-1.42-4.03-3.87Z"/>
    <path class="cls-2" d="M342.12,12.95h3.28c2.03,0,3.61,.72,3.61,2.91s-1.58,3.06-3.61,3.06h-1.53v3.83h-1.75V12.95Zm3.1,4.58c1.34,0,2.07-.56,2.07-1.67s-.73-1.52-2.07-1.52h-1.34v3.19h1.34Zm1.11-.12l3.06,5.34h-1.96l-2.37-4.3,1.26-1.04Z"/>
    <path class="cls-2" d="M350.79,19.06c0-2.4,1.83-3.85,3.8-3.85,2.2,0,3.42,1.46,3.42,3.5,0,.35-.05,.68-.08,.87h-5.9v-1.22h4.78l-.33,.38c0-1.45-.68-2.19-1.84-2.19-1.22,0-2.16,.88-2.16,2.52s1.03,2.53,2.56,2.53c.77,0,1.41-.23,2.07-.6l.59,1.07c-.79,.51-1.8,.87-2.89,.87-2.26,0-4.03-1.42-4.03-3.87Z"/>
    <path class="cls-2" d="M359.47,15.39h1.75l1.42,3.81c.26,.74,.5,1.48,.74,2.23h.06c.24-.74,.46-1.49,.73-2.23l1.42-3.81h1.66l-2.88,7.37h-1.97l-2.94-7.37Z"/>
    <path class="cls-2" d="M372.31,16.76h-3.18v-1.37h4.92v7.37h-1.73v-5.99Zm-.48-3.87c0-.69,.52-1.17,1.23-1.17s1.23,.48,1.23,1.17-.52,1.16-1.23,1.16-1.23-.46-1.23-1.16Z"/>
    <path class="cls-2" d="M377.79,19.06c0-2.4,1.83-3.85,3.8-3.85,2.2,0,3.42,1.46,3.42,3.5,0,.35-.05,.68-.08,.87h-5.9v-1.22h4.78l-.33,.38c0-1.45-.68-2.19-1.84-2.19-1.22,0-2.16,.88-2.16,2.52s1.03,2.53,2.56,2.53c.77,0,1.41-.23,2.07-.6l.59,1.07c-.79,.51-1.8,.87-2.89,.87-2.26,0-4.03-1.42-4.03-3.87Z"/>
    <path class="cls-2" d="M385.95,15.39h1.69l.66,3.83c.11,.71,.2,1.39,.29,2.11h.05c.08-.72,.22-1.42,.38-2.11l.68-3.11h1.42l.67,3.11c.15,.71,.32,1.39,.41,2.11h.06c.11-.72,.16-1.4,.27-2.11l.64-3.83h1.6l-1.35,7.37h-2.1l-.62-2.94c-.11-.58-.21-1.29-.32-2.18h-.06c-.09,.77-.18,1.46-.3,2.18l-.6,2.94h-2.08l-1.4-7.37Z"/>
    <path class="cls-2" d="M399.31,16.76h-3.18v-1.37h4.92v7.37h-1.73v-5.99Zm-.48-3.87c0-.69,.52-1.17,1.23-1.17s1.23,.48,1.23,1.17-.52,1.16-1.23,1.16-1.23-.46-1.23-1.16Z"/>
    <path class="cls-2" d="M405.1,15.39h1.42l.13,1.11h.06c.71-.71,1.53-1.29,2.66-1.29,1.7,0,2.47,1.09,2.47,2.98v4.56h-1.74v-4.34c0-1.18-.38-1.72-1.37-1.72-.73,0-1.22,.35-1.89,1.04v5.02h-1.73v-7.37Z"/>
    <path class="cls-2" d="M413.79,24.05c0-.6,.41-1.14,1.18-1.55v-.06c-.4-.23-.75-.61-.75-1.23,0-.48,.34-1.01,.88-1.38v-.06c-.52-.37-.94-1.03-.94-1.9,0-1.69,1.41-2.65,3.03-2.65,.43,0,.82,.06,1.15,.18h3.02v1.32h-1.69c.25,.28,.47,.74,.47,1.22,0,1.64-1.29,2.5-2.95,2.5-.34,0-.74-.07-1.12-.21-.29,.19-.45,.4-.45,.69,0,.48,.47,.7,1.39,.7h1.5c1.91,0,2.9,.51,2.9,1.8,0,1.46-1.65,2.62-4.25,2.62-2.03,0-3.37-.65-3.37-1.96Zm5.95-.36c0-.58-.51-.73-1.48-.73h-1.18c-.48,0-.83-.03-1.12-.11-.53,.3-.73,.62-.73,.97,0,.66,.78,1.04,2.13,1.04,1.44,0,2.38-.54,2.38-1.17Zm-1.15-5.83c0-.9-.63-1.46-1.4-1.46s-1.39,.56-1.39,1.46,.63,1.48,1.39,1.48,1.4-.55,1.4-1.48Z"/>
    <path class="cls-2" d="M434.49,14.41h-3.09v-1.47h7.92v1.47h-3.09v8.34h-1.74V14.41Z"/>
    <path class="cls-2" d="M440.67,19.08c0-2.46,1.76-3.87,3.7-3.87s3.7,1.41,3.7,3.87-1.76,3.85-3.7,3.85-3.7-1.41-3.7-3.85Zm5.62,0c0-1.48-.72-2.46-1.92-2.46s-1.92,.98-1.92,2.46,.72,2.44,1.92,2.44,1.92-.97,1.92-2.44Z"/>
    <path class="cls-2" d="M449.67,19.08c0-2.46,1.76-3.87,3.7-3.87s3.7,1.41,3.7,3.87-1.76,3.85-3.7,3.85-3.7-1.41-3.7-3.85Zm5.62,0c0-1.48-.72-2.46-1.92-2.46s-1.92,.98-1.92,2.46,.72,2.44,1.92,2.44,1.92-.97,1.92-2.44Z"/>
    <path class="cls-2" d="M461.25,20.07v-6.54h-2.46v-1.37h4.19v8c0,.98,.58,1.36,1.32,1.36,.38,0,.79-.09,1.26-.29l.4,1.28c-.72,.27-1.23,.42-2.09,.42-1.72,0-2.63-1.05-2.63-2.86Z"/>
    <path class="cls-2" d="M470.06,21.58c0-.81,.58-1.33,1.31-1.33s1.31,.52,1.31,1.33-.58,1.35-1.31,1.35-1.31-.54-1.31-1.35Zm.5-7.17l-.05-1.71h1.73l-.05,1.71-.24,4.68h-1.15l-.24-4.68Z"/>
  </g>
  <g>
    <path class="cls-2" d="M771.66,12.95h1.93l1.17,3.83,.4,1.47h.06l.39-1.47,1.17-3.83h1.93v9.81h-1.54v-3.96c0-1.03,.17-3.07,.25-4.02h-.04l-.65,2.28-1.08,3.1h-.99l-1.07-3.1-.64-2.28h-.04c.1,.95,.25,2.99,.25,4.02v3.96h-1.51V12.95Z"/>
    <path class="cls-2" d="M780.5,19.08c0-2.46,1.76-3.87,3.7-3.87s3.7,1.41,3.7,3.87-1.76,3.85-3.7,3.85-3.7-1.41-3.7-3.85Zm5.62,0c0-1.48-.72-2.46-1.92-2.46s-1.92,.98-1.92,2.46,.72,2.44,1.92,2.44,1.92-.97,1.92-2.44Z"/>
    <path class="cls-2" d="M790.64,15.39h1.43l.15,1.68h.04c.75-1.2,1.87-1.86,3.13-1.86,.59,0,1,.09,1.43,.3l-.37,1.47c-.49-.15-.77-.23-1.33-.23-1.01,0-2,.52-2.75,1.95v4.06h-1.74v-7.37Z"/>
    <path class="cls-2" d="M798.62,19.06c0-2.4,1.83-3.85,3.8-3.85,2.2,0,3.42,1.46,3.42,3.5,0,.35-.05,.68-.08,.87h-5.9v-1.22h4.78l-.33,.38c0-1.46-.68-2.19-1.84-2.19-1.22,0-2.16,.88-2.16,2.52s1.03,2.53,2.56,2.53c.77,0,1.41-.23,2.07-.6l.59,1.07c-.79,.51-1.8,.87-2.89,.87-2.26,0-4.03-1.42-4.03-3.87Z"/>
    <path class="cls-2" d="M817.23,20.56l4.24-2.75v-.06l-4.24-2.75v-1.61l5.7,3.77v1.25l-5.7,3.77v-1.61Z"/>
    <path class="cls-2" d="M826.23,20.56l4.24-2.75v-.06l-4.24-2.75v-1.61l5.7,3.77v1.25l-5.7,3.77v-1.61Z"/>
  </g>
</svg>